<mxfile host="app.diagrams.net" agent="Mozilla/5.0 (Windows NT 10.0; Win64; x64) AppleWebKit/537.36 (KHTML, like Gecko) Chrome/140.0.0.0 Safari/537.36" version="28.2.8">
  <diagram name="第 1 页" id="heiDzFfuvlx9K-g6vPqn">
    <mxGraphModel dx="599" dy="743" grid="1" gridSize="10" guides="1" tooltips="1" connect="1" arrows="1" fold="1" page="1" pageScale="1" pageWidth="827" pageHeight="1169" math="0" shadow="0">
      <root>
        <mxCell id="0" />
        <mxCell id="1" parent="0" />
        <mxCell id="fIorHOIJSleJLHwtXW0u-1" value="通用支撑层(Support)" style="html=1;verticalAlign=top;fillColor=#d5e8d4;strokeColor=#82b366;fontSize=16;fontStyle=1" vertex="1" parent="1">
          <mxGeometry x="940" y="938.75" width="720" height="90" as="geometry" />
        </mxCell>
        <mxCell id="fIorHOIJSleJLHwtXW0u-2" value="&lt;font style=&quot;font-size: 12px;&quot;&gt;«FuncUnit»&lt;/font&gt;&lt;br style=&quot;font-size: 14px;&quot;&gt;&lt;b style=&quot;font-size: 14px;&quot;&gt;调试打印&lt;/b&gt;" style="html=1;dropTarget=0;fontSize=14;fillColor=#E6D0DE;strokeColor=#36393d;gradientColor=#FFFFFF;gradientDirection=east;" vertex="1" parent="1">
          <mxGeometry x="980" y="968.75" width="110" height="50" as="geometry" />
        </mxCell>
        <mxCell id="fIorHOIJSleJLHwtXW0u-3" value="" style="shape=module;jettyWidth=8;jettyHeight=4;fontSize=14;fillColor=#E6D0DE;strokeColor=#36393d;gradientColor=#FFFFFF;gradientDirection=east;" vertex="1" parent="fIorHOIJSleJLHwtXW0u-2">
          <mxGeometry x="1" width="20" height="20" relative="1" as="geometry">
            <mxPoint x="-27" y="7" as="offset" />
          </mxGeometry>
        </mxCell>
        <mxCell id="fIorHOIJSleJLHwtXW0u-4" value="领域设施层(Domain)" style="html=1;verticalAlign=top;fillColor=#fff2cc;strokeColor=#d6b656;fontSize=16;fontStyle=1" vertex="1" parent="1">
          <mxGeometry x="940" y="791" width="890" height="90" as="geometry" />
        </mxCell>
        <mxCell id="fIorHOIJSleJLHwtXW0u-5" value="&lt;font style=&quot;font-size: 12px;&quot;&gt;«Module»&lt;/font&gt;&lt;br style=&quot;font-size: 14px;&quot;&gt;&lt;b&gt;Digraph&lt;/b&gt;" style="html=1;dropTarget=0;fontSize=14;fillColor=#E6D0DE;strokeColor=#36393d;gradientColor=#FFFFFF;gradientDirection=east;" vertex="1" parent="1">
          <mxGeometry x="1110" y="968.75" width="110" height="50" as="geometry" />
        </mxCell>
        <mxCell id="fIorHOIJSleJLHwtXW0u-6" value="" style="shape=module;jettyWidth=8;jettyHeight=4;fontSize=14;fillColor=#E6D0DE;strokeColor=#36393d;gradientColor=#FFFFFF;gradientDirection=east;" vertex="1" parent="fIorHOIJSleJLHwtXW0u-5">
          <mxGeometry x="1" width="20" height="20" relative="1" as="geometry">
            <mxPoint x="-27" y="7" as="offset" />
          </mxGeometry>
        </mxCell>
        <mxCell id="fIorHOIJSleJLHwtXW0u-7" value="业务逻辑层-核心" style="html=1;verticalAlign=top;fillColor=#ffe6cc;strokeColor=#d79b00;fontSize=16;fontStyle=1" vertex="1" parent="1">
          <mxGeometry x="1290" y="460" width="560" height="240" as="geometry" />
        </mxCell>
        <mxCell id="fIorHOIJSleJLHwtXW0u-8" value="&lt;font style=&quot;font-size: 12px;&quot;&gt;«Module»&lt;/font&gt;&lt;br style=&quot;font-size: 14px;&quot;&gt;&lt;b&gt;线程池&lt;/b&gt;" style="html=1;dropTarget=0;fontSize=14;fillColor=#E6D0DE;strokeColor=#36393d;gradientColor=#FFFFFF;gradientDirection=east;" vertex="1" parent="1">
          <mxGeometry x="1240" y="968.75" width="110" height="50" as="geometry" />
        </mxCell>
        <mxCell id="fIorHOIJSleJLHwtXW0u-9" value="" style="shape=module;jettyWidth=8;jettyHeight=4;fontSize=14;fillColor=#E6D0DE;strokeColor=#36393d;gradientColor=#FFFFFF;gradientDirection=east;" vertex="1" parent="fIorHOIJSleJLHwtXW0u-8">
          <mxGeometry x="1" width="20" height="20" relative="1" as="geometry">
            <mxPoint x="-27" y="7" as="offset" />
          </mxGeometry>
        </mxCell>
        <mxCell id="fIorHOIJSleJLHwtXW0u-10" value="业务逻辑层-后端" style="html=1;verticalAlign=top;fillColor=#ffe6cc;strokeColor=#d79b00;fontSize=16;fontStyle=1" vertex="1" parent="1">
          <mxGeometry x="1860" y="460" width="150" height="300" as="geometry" />
        </mxCell>
        <mxCell id="fIorHOIJSleJLHwtXW0u-11" value="&lt;font style=&quot;font-size: 12px;&quot;&gt;«FuncUnit»&lt;/font&gt;&lt;br style=&quot;font-size: 14px;&quot;&gt;&lt;b&gt;耗时统计&lt;/b&gt;" style="html=1;dropTarget=0;fontSize=14;fillColor=#E6D0DE;strokeColor=#36393d;gradientColor=#FFFFFF;gradientDirection=east;" vertex="1" parent="1">
          <mxGeometry x="1370" y="968.75" width="110" height="50" as="geometry" />
        </mxCell>
        <mxCell id="fIorHOIJSleJLHwtXW0u-12" value="" style="shape=module;jettyWidth=8;jettyHeight=4;fontSize=14;fillColor=#E6D0DE;strokeColor=#36393d;gradientColor=#FFFFFF;gradientDirection=east;" vertex="1" parent="fIorHOIJSleJLHwtXW0u-11">
          <mxGeometry x="1" width="20" height="20" relative="1" as="geometry">
            <mxPoint x="-27" y="7" as="offset" />
          </mxGeometry>
        </mxCell>
        <mxCell id="fIorHOIJSleJLHwtXW0u-13" value="业务逻辑层-前端" style="html=1;verticalAlign=top;fillColor=#ffe6cc;strokeColor=#d79b00;fontSize=16;fontStyle=1" vertex="1" parent="1">
          <mxGeometry x="960" y="460" width="320" height="210" as="geometry" />
        </mxCell>
        <mxCell id="fIorHOIJSleJLHwtXW0u-14" value="&lt;font style=&quot;font-size: 12px;&quot;&gt;«FuncUnit»&lt;/font&gt;&lt;br style=&quot;font-size: 14px;&quot;&gt;&lt;b&gt;真值表&lt;/b&gt;" style="html=1;dropTarget=0;fontSize=14;fillColor=#E6D0DE;strokeColor=#36393d;gradientColor=#FFFFFF;gradientDirection=east;" vertex="1" parent="1">
          <mxGeometry x="1500" y="968.75" width="110" height="50" as="geometry" />
        </mxCell>
        <mxCell id="fIorHOIJSleJLHwtXW0u-15" value="" style="shape=module;jettyWidth=8;jettyHeight=4;fontSize=14;fillColor=#E6D0DE;strokeColor=#36393d;gradientColor=#FFFFFF;gradientDirection=east;" vertex="1" parent="fIorHOIJSleJLHwtXW0u-14">
          <mxGeometry x="1" width="20" height="20" relative="1" as="geometry">
            <mxPoint x="-27" y="7" as="offset" />
          </mxGeometry>
        </mxCell>
        <mxCell id="fIorHOIJSleJLHwtXW0u-16" value="&lt;font style=&quot;font-size: 12px;&quot;&gt;«Module»&lt;/font&gt;&lt;br style=&quot;font-size: 14px;&quot;&gt;&lt;b style=&quot;font-size: 14px;&quot;&gt;编译选项&lt;/b&gt;" style="html=1;dropTarget=0;fontSize=14;fillColor=#E6D0DE;strokeColor=#36393d;gradientColor=#FFFFFF;gradientDirection=east;" vertex="1" parent="1">
          <mxGeometry x="1000" y="822.5" width="110" height="50" as="geometry" />
        </mxCell>
        <mxCell id="fIorHOIJSleJLHwtXW0u-17" value="" style="shape=module;jettyWidth=8;jettyHeight=4;fontSize=14;fillColor=#E6D0DE;strokeColor=#36393d;gradientColor=#FFFFFF;gradientDirection=east;" vertex="1" parent="fIorHOIJSleJLHwtXW0u-16">
          <mxGeometry x="1" width="20" height="20" relative="1" as="geometry">
            <mxPoint x="-27" y="7" as="offset" />
          </mxGeometry>
        </mxCell>
        <mxCell id="fIorHOIJSleJLHwtXW0u-18" value="&lt;font style=&quot;font-size: 12px;&quot;&gt;«Module»&lt;/font&gt;&lt;br style=&quot;font-size: 14px;&quot;&gt;&lt;b style=&quot;font-size: 14px;&quot;&gt;网表超图&lt;/b&gt;" style="html=1;dropTarget=0;fontSize=14;fillColor=#E6D0DE;strokeColor=#36393d;gradientColor=#FFFFFF;gradientDirection=east;" vertex="1" parent="1">
          <mxGeometry x="1315" y="822.5" width="110" height="50" as="geometry" />
        </mxCell>
        <mxCell id="fIorHOIJSleJLHwtXW0u-19" value="" style="shape=module;jettyWidth=8;jettyHeight=4;fontSize=14;fillColor=#E6D0DE;strokeColor=#36393d;gradientColor=#FFFFFF;gradientDirection=east;" vertex="1" parent="fIorHOIJSleJLHwtXW0u-18">
          <mxGeometry x="1" width="20" height="20" relative="1" as="geometry">
            <mxPoint x="-27" y="7" as="offset" />
          </mxGeometry>
        </mxCell>
        <mxCell id="fIorHOIJSleJLHwtXW0u-20" style="edgeStyle=orthogonalEdgeStyle;rounded=0;orthogonalLoop=1;jettySize=auto;html=1;entryX=0;entryY=0.5;entryDx=0;entryDy=0;entryPerimeter=0;fontSize=14;endArrow=none;endFill=0;" edge="1" parent="1" source="fIorHOIJSleJLHwtXW0u-21" target="fIorHOIJSleJLHwtXW0u-24">
          <mxGeometry relative="1" as="geometry" />
        </mxCell>
        <mxCell id="fIorHOIJSleJLHwtXW0u-21" value="&lt;font style=&quot;font-size: 12px;&quot;&gt;«Service»&lt;/font&gt;&lt;br style=&quot;font-size: 14px;&quot;&gt;&lt;b&gt;逻辑综合&lt;/b&gt;" style="html=1;dropTarget=0;fontSize=14;fillColor=#FFCCFF;strokeColor=#36393d;gradientColor=#FFFFFF;gradientDirection=east;" vertex="1" parent="1">
          <mxGeometry x="970" y="500" width="110" height="50" as="geometry" />
        </mxCell>
        <mxCell id="fIorHOIJSleJLHwtXW0u-22" value="" style="shape=module;jettyWidth=8;jettyHeight=4;fontSize=14;fillColor=#ffcccc;strokeColor=#36393d;gradientColor=#FFFFFF;gradientDirection=east;" vertex="1" parent="fIorHOIJSleJLHwtXW0u-21">
          <mxGeometry x="1" width="20" height="20" relative="1" as="geometry">
            <mxPoint x="-27" y="7" as="offset" />
          </mxGeometry>
        </mxCell>
        <mxCell id="fIorHOIJSleJLHwtXW0u-23" style="edgeStyle=orthogonalEdgeStyle;rounded=0;orthogonalLoop=1;jettySize=auto;html=1;exitX=1;exitY=0.5;exitDx=0;exitDy=0;exitPerimeter=0;fontSize=14;endArrow=none;endFill=0;" edge="1" parent="1" source="fIorHOIJSleJLHwtXW0u-24" target="fIorHOIJSleJLHwtXW0u-25">
          <mxGeometry relative="1" as="geometry" />
        </mxCell>
        <mxCell id="fIorHOIJSleJLHwtXW0u-24" value="网表" style="shape=providedRequiredInterface;html=1;verticalLabelPosition=bottom;sketch=0;fontSize=14;fillColor=#FFCCFF;gradientColor=#FFFFFF;gradientDirection=east;fontStyle=1" vertex="1" parent="1">
          <mxGeometry x="1100" y="515" width="20" height="20" as="geometry" />
        </mxCell>
        <mxCell id="fIorHOIJSleJLHwtXW0u-25" value="&lt;font style=&quot;font-size: 12px;&quot;&gt;«Module»&lt;/font&gt;&lt;br style=&quot;font-size: 14px;&quot;&gt;&lt;b&gt;网表解析&lt;/b&gt;" style="html=1;dropTarget=0;fontSize=14;fillColor=#ffcccc;strokeColor=#36393d;gradientColor=#FFFFFF;gradientDirection=east;" vertex="1" parent="1">
          <mxGeometry x="1150" y="500" width="110" height="50" as="geometry" />
        </mxCell>
        <mxCell id="fIorHOIJSleJLHwtXW0u-26" value="" style="shape=module;jettyWidth=8;jettyHeight=4;fontSize=14;fillColor=#ffcccc;strokeColor=#36393d;gradientColor=#FFFFFF;gradientDirection=east;" vertex="1" parent="fIorHOIJSleJLHwtXW0u-25">
          <mxGeometry x="1" width="20" height="20" relative="1" as="geometry">
            <mxPoint x="-27" y="7" as="offset" />
          </mxGeometry>
        </mxCell>
        <mxCell id="fIorHOIJSleJLHwtXW0u-27" value="&lt;font style=&quot;font-size: 12px;&quot;&gt;«Service»&lt;/font&gt;&lt;br style=&quot;font-size: 14px;&quot;&gt;&lt;b&gt;网表分割&lt;/b&gt;" style="html=1;dropTarget=0;fontSize=14;fillColor=#FFCCFF;strokeColor=#36393d;gradientColor=#FFFFFF;gradientDirection=east;" vertex="1" parent="1">
          <mxGeometry x="1510" y="500" width="110" height="50" as="geometry" />
        </mxCell>
        <mxCell id="fIorHOIJSleJLHwtXW0u-28" value="" style="shape=module;jettyWidth=8;jettyHeight=4;fontSize=14;fillColor=#ffcccc;strokeColor=#36393d;gradientColor=#FFFFFF;gradientDirection=east;" vertex="1" parent="fIorHOIJSleJLHwtXW0u-27">
          <mxGeometry x="1" width="20" height="20" relative="1" as="geometry">
            <mxPoint x="-27" y="7" as="offset" />
          </mxGeometry>
        </mxCell>
        <mxCell id="fIorHOIJSleJLHwtXW0u-29" style="edgeStyle=orthogonalEdgeStyle;rounded=0;orthogonalLoop=1;jettySize=auto;html=1;entryX=0;entryY=0.5;entryDx=0;entryDy=0;entryPerimeter=0;fontSize=14;endArrow=none;endFill=0;" edge="1" parent="1" source="fIorHOIJSleJLHwtXW0u-27" target="fIorHOIJSleJLHwtXW0u-31">
          <mxGeometry relative="1" as="geometry">
            <mxPoint x="1300" y="545" as="sourcePoint" />
          </mxGeometry>
        </mxCell>
        <mxCell id="fIorHOIJSleJLHwtXW0u-30" style="edgeStyle=orthogonalEdgeStyle;rounded=0;orthogonalLoop=1;jettySize=auto;html=1;exitX=1;exitY=0.5;exitDx=0;exitDy=0;exitPerimeter=0;fontSize=14;endArrow=none;endFill=0;" edge="1" parent="1" source="fIorHOIJSleJLHwtXW0u-31" target="fIorHOIJSleJLHwtXW0u-55">
          <mxGeometry relative="1" as="geometry">
            <mxPoint x="1490.0000000000002" y="500" as="targetPoint" />
          </mxGeometry>
        </mxCell>
        <mxCell id="fIorHOIJSleJLHwtXW0u-31" value="超图" style="shape=providedRequiredInterface;html=1;verticalLabelPosition=bottom;sketch=0;fontSize=14;fillColor=#FFCCFF;gradientColor=#FFFFFF;gradientDirection=east;fontStyle=1;flipH=1;" vertex="1" parent="1">
          <mxGeometry x="1460" y="515" width="20" height="20" as="geometry" />
        </mxCell>
        <mxCell id="fIorHOIJSleJLHwtXW0u-32" value="&amp;lt;&amp;lt;Realization&amp;gt;&amp;gt;" style="endArrow=block;dashed=1;endFill=0;endSize=12;html=1;rounded=0;fontSize=12;strokeColor=#0000FF;fontColor=#0000FF;" edge="1" parent="1" source="fIorHOIJSleJLHwtXW0u-25" target="fIorHOIJSleJLHwtXW0u-18">
          <mxGeometry width="160" relative="1" as="geometry">
            <mxPoint x="1020" y="627" as="sourcePoint" />
            <mxPoint x="1300" y="620" as="targetPoint" />
          </mxGeometry>
        </mxCell>
        <mxCell id="fIorHOIJSleJLHwtXW0u-33" value="&lt;font style=&quot;font-size: 12px;&quot;&gt;«Module»&lt;/font&gt;&lt;br style=&quot;font-size: 14px;&quot;&gt;&lt;b&gt;分区布局&lt;/b&gt;" style="html=1;dropTarget=0;fontSize=14;fillColor=#ffcccc;strokeColor=#36393d;gradientColor=#FFFFFF;gradientDirection=east;" vertex="1" parent="1">
          <mxGeometry x="1720" y="500" width="110" height="50" as="geometry" />
        </mxCell>
        <mxCell id="fIorHOIJSleJLHwtXW0u-34" value="" style="shape=module;jettyWidth=8;jettyHeight=4;fontSize=14;fillColor=#ffcccc;strokeColor=#36393d;gradientColor=#FFFFFF;gradientDirection=east;" vertex="1" parent="fIorHOIJSleJLHwtXW0u-33">
          <mxGeometry x="1" width="20" height="20" relative="1" as="geometry">
            <mxPoint x="-27" y="7" as="offset" />
          </mxGeometry>
        </mxCell>
        <mxCell id="fIorHOIJSleJLHwtXW0u-35" value="&amp;lt;&amp;lt;Usage&amp;gt;&amp;gt;" style="rounded=0;orthogonalLoop=1;jettySize=auto;html=1;fontSize=12;endArrow=open;endFill=0;dashed=1;" edge="1" parent="1" source="fIorHOIJSleJLHwtXW0u-37" target="fIorHOIJSleJLHwtXW0u-18">
          <mxGeometry relative="1" as="geometry" />
        </mxCell>
        <mxCell id="fIorHOIJSleJLHwtXW0u-36" style="edgeStyle=none;rounded=0;orthogonalLoop=1;jettySize=auto;html=1;dashed=1;strokeColor=#000000;fontSize=12;fontColor=#000000;endArrow=open;endFill=0;" edge="1" parent="1" source="fIorHOIJSleJLHwtXW0u-37" target="fIorHOIJSleJLHwtXW0u-33">
          <mxGeometry relative="1" as="geometry" />
        </mxCell>
        <mxCell id="fIorHOIJSleJLHwtXW0u-37" value="&lt;font style=&quot;font-size: 12px;&quot;&gt;«Module»&lt;/font&gt;&lt;br style=&quot;font-size: 14px;&quot;&gt;&lt;b&gt;调度&lt;/b&gt;" style="html=1;dropTarget=0;fontSize=14;fillColor=#ffcccc;strokeColor=#36393d;gradientColor=#FFFFFF;gradientDirection=east;verticalAlign=top;" vertex="1" parent="1">
          <mxGeometry x="1310" y="580" width="520" height="110" as="geometry" />
        </mxCell>
        <mxCell id="fIorHOIJSleJLHwtXW0u-38" value="" style="shape=module;jettyWidth=8;jettyHeight=4;fontSize=14;fillColor=#ffcccc;strokeColor=#36393d;gradientColor=#FFFFFF;gradientDirection=east;" vertex="1" parent="fIorHOIJSleJLHwtXW0u-37">
          <mxGeometry x="1" width="20" height="20" relative="1" as="geometry">
            <mxPoint x="-27" y="7" as="offset" />
          </mxGeometry>
        </mxCell>
        <mxCell id="fIorHOIJSleJLHwtXW0u-39" style="edgeStyle=orthogonalEdgeStyle;rounded=0;orthogonalLoop=1;jettySize=auto;html=1;entryX=0;entryY=0.5;entryDx=0;entryDy=0;entryPerimeter=0;fontSize=14;endArrow=none;endFill=0;" edge="1" parent="1" source="fIorHOIJSleJLHwtXW0u-27" target="fIorHOIJSleJLHwtXW0u-41">
          <mxGeometry relative="1" as="geometry">
            <mxPoint x="1670" y="535" as="sourcePoint" />
          </mxGeometry>
        </mxCell>
        <mxCell id="fIorHOIJSleJLHwtXW0u-40" style="edgeStyle=orthogonalEdgeStyle;rounded=0;orthogonalLoop=1;jettySize=auto;html=1;exitX=1;exitY=0.5;exitDx=0;exitDy=0;exitPerimeter=0;fontSize=14;endArrow=none;endFill=0;" edge="1" parent="1" source="fIorHOIJSleJLHwtXW0u-41" target="fIorHOIJSleJLHwtXW0u-33">
          <mxGeometry relative="1" as="geometry">
            <mxPoint x="1700" y="525" as="targetPoint" />
          </mxGeometry>
        </mxCell>
        <mxCell id="fIorHOIJSleJLHwtXW0u-41" value="分区" style="shape=providedRequiredInterface;html=1;verticalLabelPosition=bottom;sketch=0;fontSize=14;fillColor=#FFCCFF;gradientColor=#FFFFFF;gradientDirection=east;fontStyle=1" vertex="1" parent="1">
          <mxGeometry x="1660" y="515" width="20" height="20" as="geometry" />
        </mxCell>
        <mxCell id="fIorHOIJSleJLHwtXW0u-42" value="&lt;font style=&quot;font-size: 12px;&quot;&gt;«SubModule»&lt;/font&gt;&lt;br style=&quot;font-size: 14px;&quot;&gt;&lt;b&gt;调度图&lt;/b&gt;" style="html=1;dropTarget=0;fontSize=14;fillColor=#ffcccc;strokeColor=#36393d;gradientColor=#FFFFFF;gradientDirection=east;" vertex="1" parent="1">
          <mxGeometry x="1330" y="626" width="110" height="50" as="geometry" />
        </mxCell>
        <mxCell id="fIorHOIJSleJLHwtXW0u-43" value="" style="shape=module;jettyWidth=8;jettyHeight=4;fontSize=14;fillColor=#ffcccc;strokeColor=#36393d;gradientColor=#FFFFFF;gradientDirection=east;" vertex="1" parent="fIorHOIJSleJLHwtXW0u-42">
          <mxGeometry x="1" width="20" height="20" relative="1" as="geometry">
            <mxPoint x="-27" y="7" as="offset" />
          </mxGeometry>
        </mxCell>
        <mxCell id="fIorHOIJSleJLHwtXW0u-44" value="&amp;lt;&amp;lt;Usage&amp;gt;&amp;gt;" style="edgeStyle=none;rounded=0;orthogonalLoop=1;jettySize=auto;html=1;dashed=1;fontSize=12;endArrow=open;endFill=0;" edge="1" parent="1" source="fIorHOIJSleJLHwtXW0u-46" target="fIorHOIJSleJLHwtXW0u-57">
          <mxGeometry relative="1" as="geometry" />
        </mxCell>
        <mxCell id="fIorHOIJSleJLHwtXW0u-45" style="edgeStyle=none;rounded=0;orthogonalLoop=1;jettySize=auto;html=1;dashed=1;fontSize=14;endArrow=open;endFill=0;" edge="1" parent="1" source="fIorHOIJSleJLHwtXW0u-46" target="fIorHOIJSleJLHwtXW0u-42">
          <mxGeometry relative="1" as="geometry" />
        </mxCell>
        <mxCell id="fIorHOIJSleJLHwtXW0u-46" value="&lt;font style=&quot;font-size: 12px;&quot;&gt;«SubModule»&lt;/font&gt;&lt;br style=&quot;font-size: 14px;&quot;&gt;&lt;b&gt;位置分配&lt;/b&gt;" style="html=1;dropTarget=0;fontSize=14;fillColor=#ffcccc;strokeColor=#36393d;gradientColor=#FFFFFF;gradientDirection=east;" vertex="1" parent="1">
          <mxGeometry x="1510" y="625.25" width="110" height="50" as="geometry" />
        </mxCell>
        <mxCell id="fIorHOIJSleJLHwtXW0u-47" value="" style="shape=module;jettyWidth=8;jettyHeight=4;fontSize=14;fillColor=#ffcccc;strokeColor=#36393d;gradientColor=#FFFFFF;gradientDirection=east;" vertex="1" parent="fIorHOIJSleJLHwtXW0u-46">
          <mxGeometry x="1" width="20" height="20" relative="1" as="geometry">
            <mxPoint x="-27" y="7" as="offset" />
          </mxGeometry>
        </mxCell>
        <mxCell id="fIorHOIJSleJLHwtXW0u-48" value="&amp;lt;&amp;lt;Usage&amp;gt;&amp;gt;" style="edgeStyle=none;rounded=0;orthogonalLoop=1;jettySize=auto;html=1;dashed=1;fontSize=12;endArrow=open;endFill=0;" edge="1" parent="1" source="fIorHOIJSleJLHwtXW0u-50" target="fIorHOIJSleJLHwtXW0u-57">
          <mxGeometry relative="1" as="geometry" />
        </mxCell>
        <mxCell id="fIorHOIJSleJLHwtXW0u-49" style="edgeStyle=none;rounded=0;orthogonalLoop=1;jettySize=auto;html=1;dashed=1;fontSize=14;endArrow=open;endFill=0;" edge="1" parent="1" source="fIorHOIJSleJLHwtXW0u-50" target="fIorHOIJSleJLHwtXW0u-46">
          <mxGeometry relative="1" as="geometry" />
        </mxCell>
        <mxCell id="fIorHOIJSleJLHwtXW0u-50" value="&lt;font style=&quot;font-size: 12px;&quot;&gt;«SubModule»&lt;/font&gt;&lt;br style=&quot;font-size: 14px;&quot;&gt;&lt;b&gt;路由&lt;/b&gt;&lt;b&gt;布线&lt;/b&gt;" style="html=1;dropTarget=0;fontSize=14;fillColor=#ffcccc;strokeColor=#36393d;gradientColor=#FFFFFF;gradientDirection=east;" vertex="1" parent="1">
          <mxGeometry x="1700" y="626" width="110" height="50" as="geometry" />
        </mxCell>
        <mxCell id="fIorHOIJSleJLHwtXW0u-51" value="" style="shape=module;jettyWidth=8;jettyHeight=4;fontSize=14;fillColor=#ffcccc;strokeColor=#36393d;gradientColor=#FFFFFF;gradientDirection=east;" vertex="1" parent="fIorHOIJSleJLHwtXW0u-50">
          <mxGeometry x="1" width="20" height="20" relative="1" as="geometry">
            <mxPoint x="-27" y="7" as="offset" />
          </mxGeometry>
        </mxCell>
        <mxCell id="fIorHOIJSleJLHwtXW0u-52" style="edgeStyle=orthogonalEdgeStyle;rounded=0;orthogonalLoop=1;jettySize=auto;html=1;fontSize=14;endArrow=none;endFill=0;" edge="1" parent="1" source="fIorHOIJSleJLHwtXW0u-21" target="fIorHOIJSleJLHwtXW0u-93">
          <mxGeometry relative="1" as="geometry">
            <mxPoint x="970" y="525" as="sourcePoint" />
            <mxPoint x="940" y="525" as="targetPoint" />
          </mxGeometry>
        </mxCell>
        <mxCell id="fIorHOIJSleJLHwtXW0u-53" value="&amp;lt;&amp;lt;Usage&amp;gt;&amp;gt;" style="rounded=0;orthogonalLoop=1;jettySize=auto;html=1;dashed=1;fontSize=12;endArrow=open;endFill=0;" edge="1" parent="1" source="fIorHOIJSleJLHwtXW0u-55" target="fIorHOIJSleJLHwtXW0u-18">
          <mxGeometry relative="1" as="geometry" />
        </mxCell>
        <mxCell id="fIorHOIJSleJLHwtXW0u-54" style="edgeStyle=none;rounded=0;orthogonalLoop=1;jettySize=auto;html=1;dashed=1;fontSize=14;endArrow=open;endFill=0;" edge="1" parent="1" source="fIorHOIJSleJLHwtXW0u-55" target="fIorHOIJSleJLHwtXW0u-25">
          <mxGeometry relative="1" as="geometry" />
        </mxCell>
        <mxCell id="fIorHOIJSleJLHwtXW0u-55" value="&lt;font style=&quot;font-size: 12px;&quot;&gt;«Module»&lt;/font&gt;&lt;br style=&quot;font-size: 14px;&quot;&gt;&lt;b&gt;网表优化&lt;/b&gt;" style="html=1;dropTarget=0;fontSize=14;fillColor=#ffcccc;strokeColor=#36393d;gradientColor=#FFFFFF;gradientDirection=east;" vertex="1" parent="1">
          <mxGeometry x="1310" y="500" width="110" height="50" as="geometry" />
        </mxCell>
        <mxCell id="fIorHOIJSleJLHwtXW0u-56" value="" style="shape=module;jettyWidth=8;jettyHeight=4;fontSize=14;fillColor=#ffcccc;strokeColor=#36393d;gradientColor=#FFFFFF;gradientDirection=east;" vertex="1" parent="fIorHOIJSleJLHwtXW0u-55">
          <mxGeometry x="1" width="20" height="20" relative="1" as="geometry">
            <mxPoint x="-27" y="7" as="offset" />
          </mxGeometry>
        </mxCell>
        <mxCell id="fIorHOIJSleJLHwtXW0u-57" value="&lt;font style=&quot;font-size: 12px;&quot;&gt;«Module»&lt;br style=&quot;&quot;&gt;&lt;/font&gt;&lt;b&gt;仿真引擎&lt;/b&gt;" style="html=1;dropTarget=0;fontSize=14;fillColor=#E6D0DE;strokeColor=#36393d;gradientColor=#FFFFFF;gradientDirection=east;" vertex="1" parent="1">
          <mxGeometry x="1600" y="820" width="110" height="50" as="geometry" />
        </mxCell>
        <mxCell id="fIorHOIJSleJLHwtXW0u-58" value="" style="shape=module;jettyWidth=8;jettyHeight=4;fontSize=14;fillColor=#E6D0DE;strokeColor=#36393d;gradientColor=#FFFFFF;gradientDirection=east;" vertex="1" parent="fIorHOIJSleJLHwtXW0u-57">
          <mxGeometry x="1" width="20" height="20" relative="1" as="geometry">
            <mxPoint x="-27" y="7" as="offset" />
          </mxGeometry>
        </mxCell>
        <mxCell id="fIorHOIJSleJLHwtXW0u-59" style="rounded=0;orthogonalLoop=1;jettySize=auto;html=1;dashed=1;fontSize=12;endArrow=open;endFill=0;" edge="1" parent="1" source="fIorHOIJSleJLHwtXW0u-60" target="fIorHOIJSleJLHwtXW0u-50">
          <mxGeometry relative="1" as="geometry" />
        </mxCell>
        <mxCell id="fIorHOIJSleJLHwtXW0u-60" value="&lt;font style=&quot;font-size: 12px;&quot;&gt;«Module»&lt;/font&gt;&lt;br style=&quot;font-size: 14px;&quot;&gt;&lt;b&gt;指令生成&lt;/b&gt;" style="html=1;dropTarget=0;fontSize=14;fillColor=#ffcccc;strokeColor=#36393d;gradientColor=#FFFFFF;gradientDirection=east;" vertex="1" parent="1">
          <mxGeometry x="1880" y="500" width="110" height="50" as="geometry" />
        </mxCell>
        <mxCell id="fIorHOIJSleJLHwtXW0u-61" value="" style="shape=module;jettyWidth=8;jettyHeight=4;fontSize=14;fillColor=#ffcccc;strokeColor=#36393d;gradientColor=#FFFFFF;gradientDirection=east;" vertex="1" parent="fIorHOIJSleJLHwtXW0u-60">
          <mxGeometry x="1" width="20" height="20" relative="1" as="geometry">
            <mxPoint x="-27" y="7" as="offset" />
          </mxGeometry>
        </mxCell>
        <mxCell id="fIorHOIJSleJLHwtXW0u-62" style="edgeStyle=none;rounded=0;orthogonalLoop=1;jettySize=auto;html=1;dashed=1;fontSize=12;endArrow=open;endFill=0;" edge="1" parent="1" source="fIorHOIJSleJLHwtXW0u-63" target="fIorHOIJSleJLHwtXW0u-50">
          <mxGeometry relative="1" as="geometry" />
        </mxCell>
        <mxCell id="fIorHOIJSleJLHwtXW0u-63" value="&lt;font style=&quot;font-size: 12px;&quot;&gt;«Module»&lt;/font&gt;&lt;br style=&quot;font-size: 14px;&quot;&gt;&lt;b&gt;信号导出&lt;/b&gt;" style="html=1;dropTarget=0;fontSize=14;fillColor=#ffcccc;strokeColor=#36393d;gradientColor=#FFFFFF;gradientDirection=east;" vertex="1" parent="1">
          <mxGeometry x="1880" y="691" width="110" height="50" as="geometry" />
        </mxCell>
        <mxCell id="fIorHOIJSleJLHwtXW0u-64" value="" style="shape=module;jettyWidth=8;jettyHeight=4;fontSize=14;fillColor=#ffcccc;strokeColor=#36393d;gradientColor=#FFFFFF;gradientDirection=east;" vertex="1" parent="fIorHOIJSleJLHwtXW0u-63">
          <mxGeometry x="1" width="20" height="20" relative="1" as="geometry">
            <mxPoint x="-27" y="7" as="offset" />
          </mxGeometry>
        </mxCell>
        <mxCell id="fIorHOIJSleJLHwtXW0u-65" value="&lt;font style=&quot;font-size: 12px;&quot;&gt;«SubSystem»&lt;/font&gt;&lt;br style=&quot;font-size: 14px;&quot;&gt;&lt;b&gt;波形恢复&lt;/b&gt;" style="html=1;dropTarget=0;fontSize=14;fillColor=#CC99FF;strokeColor=#36393d;gradientColor=#FFFFFF;gradientDirection=east;" vertex="1" parent="1">
          <mxGeometry x="1880" y="905" width="110" height="50" as="geometry" />
        </mxCell>
        <mxCell id="fIorHOIJSleJLHwtXW0u-66" value="" style="shape=module;jettyWidth=8;jettyHeight=4;fontSize=14;fillColor=#CC99FF;strokeColor=#36393d;gradientColor=#FFFFFF;gradientDirection=east;" vertex="1" parent="fIorHOIJSleJLHwtXW0u-65">
          <mxGeometry x="1" width="20" height="20" relative="1" as="geometry">
            <mxPoint x="-27" y="7" as="offset" />
          </mxGeometry>
        </mxCell>
        <mxCell id="fIorHOIJSleJLHwtXW0u-67" value="&amp;lt;&amp;lt;Usage&amp;gt;&amp;gt;" style="edgeStyle=none;rounded=0;orthogonalLoop=1;jettySize=auto;html=1;dashed=1;fontSize=12;endArrow=open;endFill=0;" edge="1" parent="1" source="fIorHOIJSleJLHwtXW0u-60" target="fIorHOIJSleJLHwtXW0u-57">
          <mxGeometry relative="1" as="geometry">
            <mxPoint x="1845.2777777777778" y="660" as="sourcePoint" />
            <mxPoint x="1794.7222222222222" y="790" as="targetPoint" />
          </mxGeometry>
        </mxCell>
        <mxCell id="fIorHOIJSleJLHwtXW0u-68" style="edgeStyle=orthogonalEdgeStyle;rounded=0;orthogonalLoop=1;jettySize=auto;html=1;fontSize=14;endArrow=none;endFill=0;" edge="1" parent="1" source="fIorHOIJSleJLHwtXW0u-60" target="fIorHOIJSleJLHwtXW0u-84">
          <mxGeometry relative="1" as="geometry">
            <mxPoint x="2090" y="625" as="sourcePoint" />
            <mxPoint x="2060" y="625" as="targetPoint" />
          </mxGeometry>
        </mxCell>
        <mxCell id="fIorHOIJSleJLHwtXW0u-69" style="edgeStyle=orthogonalEdgeStyle;rounded=0;orthogonalLoop=1;jettySize=auto;html=1;entryX=0;entryY=0.5;entryDx=0;entryDy=0;entryPerimeter=0;fontSize=14;endArrow=none;endFill=0;" edge="1" parent="1" source="fIorHOIJSleJLHwtXW0u-63" target="fIorHOIJSleJLHwtXW0u-71">
          <mxGeometry relative="1" as="geometry">
            <mxPoint x="2010" y="921" as="sourcePoint" />
          </mxGeometry>
        </mxCell>
        <mxCell id="fIorHOIJSleJLHwtXW0u-70" style="edgeStyle=orthogonalEdgeStyle;rounded=0;orthogonalLoop=1;jettySize=auto;html=1;exitX=1;exitY=0.5;exitDx=0;exitDy=0;exitPerimeter=0;fontSize=14;endArrow=none;endFill=0;" edge="1" parent="1" source="fIorHOIJSleJLHwtXW0u-71" target="fIorHOIJSleJLHwtXW0u-65">
          <mxGeometry relative="1" as="geometry">
            <mxPoint x="2110" y="830" as="targetPoint" />
          </mxGeometry>
        </mxCell>
        <mxCell id="fIorHOIJSleJLHwtXW0u-71" value="信号映射表" style="shape=providedRequiredInterface;html=1;verticalLabelPosition=bottom;sketch=0;fontSize=14;fillColor=#FFCCFF;gradientColor=#FFFFFF;gradientDirection=east;fontStyle=1" vertex="1" parent="1">
          <mxGeometry x="2040" y="706" width="20" height="20" as="geometry" />
        </mxCell>
        <mxCell id="fIorHOIJSleJLHwtXW0u-72" style="edgeStyle=orthogonalEdgeStyle;rounded=0;orthogonalLoop=1;jettySize=auto;html=1;fontSize=14;endArrow=none;endFill=0;" edge="1" parent="1" source="fIorHOIJSleJLHwtXW0u-65" target="fIorHOIJSleJLHwtXW0u-87">
          <mxGeometry relative="1" as="geometry">
            <mxPoint x="2210" y="809" as="sourcePoint" />
            <mxPoint x="2280" y="809" as="targetPoint" />
          </mxGeometry>
        </mxCell>
        <mxCell id="fIorHOIJSleJLHwtXW0u-73" value="&amp;lt;&amp;lt;Usage&amp;gt;&amp;gt;" style="edgeStyle=none;rounded=0;orthogonalLoop=1;jettySize=auto;html=1;dashed=1;fontSize=12;endArrow=open;endFill=0;" edge="1" parent="1" source="fIorHOIJSleJLHwtXW0u-63" target="fIorHOIJSleJLHwtXW0u-57">
          <mxGeometry relative="1" as="geometry">
            <mxPoint x="1980.1184834123223" y="660" as="sourcePoint" />
            <mxPoint x="1819.8815165876777" y="821" as="targetPoint" />
          </mxGeometry>
        </mxCell>
        <mxCell id="fIorHOIJSleJLHwtXW0u-74" value="&amp;lt;&amp;lt;Usage&amp;gt;&amp;gt;" style="rounded=0;orthogonalLoop=1;jettySize=auto;html=1;dashed=1;fontSize=12;endArrow=open;endFill=0;" edge="1" parent="1" source="fIorHOIJSleJLHwtXW0u-25" target="fIorHOIJSleJLHwtXW0u-16">
          <mxGeometry relative="1" as="geometry">
            <mxPoint x="1348.6956521739132" y="560" as="sourcePoint" />
            <mxPoint x="1231.304347826087" y="740" as="targetPoint" />
          </mxGeometry>
        </mxCell>
        <mxCell id="fIorHOIJSleJLHwtXW0u-75" value="&lt;font style=&quot;font-size: 12px;&quot;&gt;«Module»&lt;/font&gt;&lt;br style=&quot;font-size: 14px;&quot;&gt;&lt;b&gt;配置解析&lt;/b&gt;" style="html=1;dropTarget=0;fontSize=14;fillColor=#ffcccc;strokeColor=#36393d;gradientColor=#FFFFFF;gradientDirection=east;" vertex="1" parent="1">
          <mxGeometry x="970" y="600" width="110" height="50" as="geometry" />
        </mxCell>
        <mxCell id="fIorHOIJSleJLHwtXW0u-76" value="" style="shape=module;jettyWidth=8;jettyHeight=4;fontSize=14;fillColor=#ffcccc;strokeColor=#36393d;gradientColor=#FFFFFF;gradientDirection=east;" vertex="1" parent="fIorHOIJSleJLHwtXW0u-75">
          <mxGeometry x="1" width="20" height="20" relative="1" as="geometry">
            <mxPoint x="-27" y="7" as="offset" />
          </mxGeometry>
        </mxCell>
        <mxCell id="fIorHOIJSleJLHwtXW0u-77" value="&amp;lt;&amp;lt;Realization&amp;gt;&amp;gt;" style="endArrow=block;dashed=1;endFill=0;endSize=12;html=1;rounded=0;fontSize=12;strokeColor=#0000FF;fontColor=#0000FF;" edge="1" parent="1" source="fIorHOIJSleJLHwtXW0u-75" target="fIorHOIJSleJLHwtXW0u-16">
          <mxGeometry width="160" relative="1" as="geometry">
            <mxPoint x="1215" y="560" as="sourcePoint" />
            <mxPoint x="1215" y="740" as="targetPoint" />
          </mxGeometry>
        </mxCell>
        <mxCell id="fIorHOIJSleJLHwtXW0u-78" style="edgeStyle=orthogonalEdgeStyle;rounded=0;orthogonalLoop=1;jettySize=auto;html=1;fontSize=14;endArrow=none;endFill=0;" edge="1" parent="1" source="fIorHOIJSleJLHwtXW0u-65" target="fIorHOIJSleJLHwtXW0u-90">
          <mxGeometry relative="1" as="geometry">
            <mxPoint x="1740" y="999" as="sourcePoint" />
            <mxPoint x="2030" y="878" as="targetPoint" />
          </mxGeometry>
        </mxCell>
        <mxCell id="fIorHOIJSleJLHwtXW0u-79" style="edgeStyle=orthogonalEdgeStyle;rounded=0;orthogonalLoop=1;jettySize=auto;html=1;fontSize=14;endArrow=none;endFill=0;" edge="1" parent="1" source="fIorHOIJSleJLHwtXW0u-75" target="fIorHOIJSleJLHwtXW0u-96">
          <mxGeometry relative="1" as="geometry">
            <mxPoint x="970" y="625.0000000000002" as="sourcePoint" />
            <mxPoint x="940" y="625" as="targetPoint" />
          </mxGeometry>
        </mxCell>
        <mxCell id="fIorHOIJSleJLHwtXW0u-80" value="&amp;lt;&amp;lt;Usage&amp;gt;&amp;gt;" style="rounded=0;orthogonalLoop=1;jettySize=auto;html=1;fontSize=12;endArrow=open;endFill=0;dashed=1;" edge="1" parent="1" source="fIorHOIJSleJLHwtXW0u-42" target="fIorHOIJSleJLHwtXW0u-5">
          <mxGeometry relative="1" as="geometry">
            <mxPoint x="1545" y="660" as="sourcePoint" />
            <mxPoint x="1545" y="821" as="targetPoint" />
          </mxGeometry>
        </mxCell>
        <mxCell id="fIorHOIJSleJLHwtXW0u-81" value="&amp;lt;&amp;lt;Usage&amp;gt;&amp;gt;" style="rounded=0;orthogonalLoop=1;jettySize=auto;html=1;fontSize=12;endArrow=open;endFill=0;dashed=1;" edge="1" parent="1" source="fIorHOIJSleJLHwtXW0u-33" target="fIorHOIJSleJLHwtXW0u-8">
          <mxGeometry relative="1" as="geometry">
            <mxPoint x="1545" y="871" as="sourcePoint" />
            <mxPoint x="1545" y="960" as="targetPoint" />
          </mxGeometry>
        </mxCell>
        <mxCell id="fIorHOIJSleJLHwtXW0u-82" value="&amp;lt;&amp;lt;Usage&amp;gt;&amp;gt;" style="rounded=0;orthogonalLoop=1;jettySize=auto;html=1;fontSize=12;endArrow=open;endFill=0;dashed=1;" edge="1" parent="1" source="fIorHOIJSleJLHwtXW0u-55" target="fIorHOIJSleJLHwtXW0u-14">
          <mxGeometry relative="1" as="geometry">
            <mxPoint x="1490" y="869.635135135135" as="sourcePoint" />
            <mxPoint x="1230" y="981.364864864865" as="targetPoint" />
          </mxGeometry>
        </mxCell>
        <mxCell id="fIorHOIJSleJLHwtXW0u-83" value="" style="group" vertex="1" connectable="0" parent="1">
          <mxGeometry x="2020" y="515" width="60" height="50" as="geometry" />
        </mxCell>
        <mxCell id="fIorHOIJSleJLHwtXW0u-84" value="" style="ellipse;whiteSpace=wrap;html=1;aspect=fixed;fontSize=12;fillColor=#FFCCFF;gradientColor=#FFFFFF;gradientDirection=east;" vertex="1" parent="fIorHOIJSleJLHwtXW0u-83">
          <mxGeometry x="20" width="20" height="20" as="geometry" />
        </mxCell>
        <mxCell id="fIorHOIJSleJLHwtXW0u-85" value="指令bin" style="text;html=1;strokeColor=none;fillColor=none;align=center;verticalAlign=middle;whiteSpace=wrap;rounded=0;fontSize=14;fontStyle=1" vertex="1" parent="fIorHOIJSleJLHwtXW0u-83">
          <mxGeometry y="20" width="60" height="30" as="geometry" />
        </mxCell>
        <mxCell id="fIorHOIJSleJLHwtXW0u-86" value="" style="group" vertex="1" connectable="0" parent="1">
          <mxGeometry x="2020" y="920" width="60" height="50" as="geometry" />
        </mxCell>
        <mxCell id="fIorHOIJSleJLHwtXW0u-87" value="" style="ellipse;whiteSpace=wrap;html=1;aspect=fixed;fontSize=12;fillColor=#FFCCFF;gradientColor=#FFFFFF;gradientDirection=east;" vertex="1" parent="fIorHOIJSleJLHwtXW0u-86">
          <mxGeometry x="20" width="20" height="20" as="geometry" />
        </mxCell>
        <mxCell id="fIorHOIJSleJLHwtXW0u-88" value="波形文件" style="text;html=1;strokeColor=none;fillColor=none;align=center;verticalAlign=middle;whiteSpace=wrap;rounded=0;fontSize=14;fontStyle=1" vertex="1" parent="fIorHOIJSleJLHwtXW0u-86">
          <mxGeometry y="20" width="60" height="30" as="geometry" />
        </mxCell>
        <mxCell id="fIorHOIJSleJLHwtXW0u-89" value="" style="group" vertex="1" connectable="0" parent="1">
          <mxGeometry x="1800" y="920" width="60" height="50" as="geometry" />
        </mxCell>
        <mxCell id="fIorHOIJSleJLHwtXW0u-90" value="" style="ellipse;whiteSpace=wrap;html=1;aspect=fixed;fontSize=12;fillColor=#FFCCFF;gradientColor=#FFFFFF;gradientDirection=east;" vertex="1" parent="fIorHOIJSleJLHwtXW0u-89">
          <mxGeometry x="20" width="20" height="20" as="geometry" />
        </mxCell>
        <mxCell id="fIorHOIJSleJLHwtXW0u-91" value="波形数据" style="text;html=1;strokeColor=none;fillColor=none;align=center;verticalAlign=middle;whiteSpace=wrap;rounded=0;fontSize=14;fontStyle=1" vertex="1" parent="fIorHOIJSleJLHwtXW0u-89">
          <mxGeometry y="20" width="60" height="30" as="geometry" />
        </mxCell>
        <mxCell id="fIorHOIJSleJLHwtXW0u-92" value="" style="group" vertex="1" connectable="0" parent="1">
          <mxGeometry x="900" y="515" width="60" height="50" as="geometry" />
        </mxCell>
        <mxCell id="fIorHOIJSleJLHwtXW0u-93" value="" style="ellipse;whiteSpace=wrap;html=1;aspect=fixed;fontSize=12;fillColor=#FFCCFF;gradientColor=#FFFFFF;gradientDirection=east;" vertex="1" parent="fIorHOIJSleJLHwtXW0u-92">
          <mxGeometry x="20" width="20" height="20" as="geometry" />
        </mxCell>
        <mxCell id="fIorHOIJSleJLHwtXW0u-94" value="RTL代码" style="text;html=1;strokeColor=none;fillColor=none;align=center;verticalAlign=middle;whiteSpace=wrap;rounded=0;fontSize=14;fontStyle=1" vertex="1" parent="fIorHOIJSleJLHwtXW0u-92">
          <mxGeometry y="20" width="60" height="30" as="geometry" />
        </mxCell>
        <mxCell id="fIorHOIJSleJLHwtXW0u-95" value="" style="group" vertex="1" connectable="0" parent="1">
          <mxGeometry x="900" y="615" width="60" height="50" as="geometry" />
        </mxCell>
        <mxCell id="fIorHOIJSleJLHwtXW0u-96" value="" style="ellipse;whiteSpace=wrap;html=1;aspect=fixed;fontSize=12;fillColor=#FFCCFF;gradientColor=#FFFFFF;gradientDirection=east;" vertex="1" parent="fIorHOIJSleJLHwtXW0u-95">
          <mxGeometry x="20" width="20" height="20" as="geometry" />
        </mxCell>
        <mxCell id="fIorHOIJSleJLHwtXW0u-97" value="编译配置" style="text;html=1;strokeColor=none;fillColor=none;align=center;verticalAlign=middle;whiteSpace=wrap;rounded=0;fontSize=14;fontStyle=1" vertex="1" parent="fIorHOIJSleJLHwtXW0u-95">
          <mxGeometry y="20" width="60" height="30" as="geometry" />
        </mxCell>
        <mxCell id="fIorHOIJSleJLHwtXW0u-98" value="&lt;font style=&quot;font-size: 12px;&quot;&gt;«Module»&lt;/font&gt;&lt;br style=&quot;font-size: 14px;&quot;&gt;&lt;b&gt;顶层互连&lt;/b&gt;" style="html=1;dropTarget=0;fontSize=14;fillColor=#ffcccc;strokeColor=#36393d;gradientColor=#FFFFFF;gradientDirection=east;" vertex="1" parent="1">
          <mxGeometry x="1880" y="600" width="110" height="50" as="geometry" />
        </mxCell>
        <mxCell id="fIorHOIJSleJLHwtXW0u-99" value="" style="shape=module;jettyWidth=8;jettyHeight=4;fontSize=14;fillColor=#ffcccc;strokeColor=#36393d;gradientColor=#FFFFFF;gradientDirection=east;" vertex="1" parent="fIorHOIJSleJLHwtXW0u-98">
          <mxGeometry x="1" width="20" height="20" relative="1" as="geometry">
            <mxPoint x="-27" y="7" as="offset" />
          </mxGeometry>
        </mxCell>
        <mxCell id="fIorHOIJSleJLHwtXW0u-100" style="edgeStyle=orthogonalEdgeStyle;rounded=0;orthogonalLoop=1;jettySize=auto;html=1;fontSize=14;endArrow=none;endFill=0;" edge="1" parent="1" source="fIorHOIJSleJLHwtXW0u-98" target="fIorHOIJSleJLHwtXW0u-101">
          <mxGeometry relative="1" as="geometry">
            <mxPoint x="2000" y="535" as="sourcePoint" />
            <mxPoint x="2050" y="535" as="targetPoint" />
          </mxGeometry>
        </mxCell>
        <mxCell id="fIorHOIJSleJLHwtXW0u-101" value="" style="ellipse;whiteSpace=wrap;html=1;aspect=fixed;fontSize=12;fillColor=#FFCCFF;gradientColor=#FFFFFF;gradientDirection=east;" vertex="1" parent="1">
          <mxGeometry x="2040" y="615" width="20" height="20" as="geometry" />
        </mxCell>
        <mxCell id="fIorHOIJSleJLHwtXW0u-102" value="顶层IO" style="text;html=1;strokeColor=none;fillColor=none;align=center;verticalAlign=middle;whiteSpace=wrap;rounded=0;fontSize=14;fontStyle=1" vertex="1" parent="1">
          <mxGeometry x="2020" y="635" width="60" height="30" as="geometry" />
        </mxCell>
        <mxCell id="fIorHOIJSleJLHwtXW0u-103" value="&amp;lt;&amp;lt;Usage&amp;gt;&amp;gt;" style="edgeStyle=none;rounded=0;orthogonalLoop=1;jettySize=auto;html=1;dashed=1;fontSize=12;endArrow=open;endFill=0;" edge="1" parent="1" source="fIorHOIJSleJLHwtXW0u-98" target="fIorHOIJSleJLHwtXW0u-57">
          <mxGeometry relative="1" as="geometry">
            <mxPoint x="1984.903536977492" y="560" as="sourcePoint" />
            <mxPoint x="1775.0964630225076" y="821" as="targetPoint" />
          </mxGeometry>
        </mxCell>
        <mxCell id="fIorHOIJSleJLHwtXW0u-104" style="edgeStyle=none;rounded=0;orthogonalLoop=1;jettySize=auto;html=1;dashed=1;fontSize=12;endArrow=open;endFill=0;" edge="1" parent="1" source="fIorHOIJSleJLHwtXW0u-98" target="fIorHOIJSleJLHwtXW0u-50">
          <mxGeometry relative="1" as="geometry">
            <mxPoint x="1963.791208791209" y="701" as="sourcePoint" />
            <mxPoint x="1896.208791208791" y="660" as="targetPoint" />
          </mxGeometry>
        </mxCell>
        <mxCell id="fIorHOIJSleJLHwtXW0u-105" value="&amp;lt;&amp;lt;Usage&amp;gt;&amp;gt;" style="rounded=0;orthogonalLoop=1;jettySize=auto;html=1;fontSize=12;endArrow=open;endFill=0;dashed=1;" edge="1" parent="1" source="fIorHOIJSleJLHwtXW0u-25" target="fIorHOIJSleJLHwtXW0u-8">
          <mxGeometry relative="1" as="geometry">
            <mxPoint x="1759.4680851063831" y="560" as="sourcePoint" />
            <mxPoint x="1330.531914893617" y="980" as="targetPoint" />
          </mxGeometry>
        </mxCell>
        <mxCell id="fIorHOIJSleJLHwtXW0u-106" value="使用编译选项的模块很多，全部连线比较杂乱，所以隐藏" style="shape=callout;whiteSpace=wrap;html=1;perimeter=calloutPerimeter;glass=0;fillStyle=auto;strokeWidth=1;fontSize=14;fontColor=#000000;fillColor=#FFE599;gradientColor=#FFFFFF;gradientDirection=east;opacity=30;position2=1;align=left;flipV=0;" vertex="1" parent="1">
          <mxGeometry x="880" y="691" width="90" height="120" as="geometry" />
        </mxCell>
        <mxCell id="fIorHOIJSleJLHwtXW0u-107" style="edgeStyle=none;rounded=1;orthogonalLoop=1;jettySize=auto;html=1;dashed=1;strokeColor=#000000;fontSize=14;fontColor=#000000;endArrow=open;endFill=0;elbow=vertical;" edge="1" parent="1" source="fIorHOIJSleJLHwtXW0u-109" target="fIorHOIJSleJLHwtXW0u-27">
          <mxGeometry relative="1" as="geometry" />
        </mxCell>
        <mxCell id="fIorHOIJSleJLHwtXW0u-108" style="edgeStyle=none;rounded=1;orthogonalLoop=1;jettySize=auto;html=1;dashed=1;strokeColor=#000000;fontSize=14;fontColor=#000000;endArrow=open;endFill=0;elbow=vertical;" edge="1" parent="1" source="fIorHOIJSleJLHwtXW0u-109" target="fIorHOIJSleJLHwtXW0u-33">
          <mxGeometry relative="1" as="geometry" />
        </mxCell>
        <mxCell id="fIorHOIJSleJLHwtXW0u-109" value="&lt;font style=&quot;font-size: 12px;&quot;&gt;«Module»&lt;/font&gt;&lt;br style=&quot;font-size: 14px;&quot;&gt;&lt;b&gt;流程控制&lt;/b&gt;" style="html=1;dropTarget=0;fontSize=14;fillColor=#ffcccc;strokeColor=#36393d;gradientColor=#FFFFFF;gradientDirection=east;" vertex="1" parent="1">
          <mxGeometry x="1615" y="360" width="110" height="50" as="geometry" />
        </mxCell>
        <mxCell id="fIorHOIJSleJLHwtXW0u-110" value="" style="shape=module;jettyWidth=8;jettyHeight=4;fontSize=14;fillColor=#ffcccc;strokeColor=#36393d;gradientColor=#FFFFFF;gradientDirection=east;" vertex="1" parent="fIorHOIJSleJLHwtXW0u-109">
          <mxGeometry x="1" width="20" height="20" relative="1" as="geometry">
            <mxPoint x="-27" y="7" as="offset" />
          </mxGeometry>
        </mxCell>
      </root>
    </mxGraphModel>
  </diagram>
</mxfile>
